<mxfile host="app.diagrams.net" modified="2022-06-15T06:26:36.962Z" agent="5.0 (Windows NT 10.0; Win64; x64) AppleWebKit/537.36 (KHTML, like Gecko) Chrome/96.0.4664.93 Safari/537.36" etag="FJkO5HX72kS0Cfmrg8nv" version="20.0.1" type="github">
  <diagram id="7JtHQiy0lPd25MMBh19H" name="第 1 页">
    <mxGraphModel dx="1422" dy="706" grid="1" gridSize="10" guides="1" tooltips="1" connect="1" arrows="1" fold="1" page="1" pageScale="1" pageWidth="827" pageHeight="1169" math="0" shadow="0">
      <root>
        <mxCell id="0" />
        <mxCell id="1" parent="0" />
        <mxCell id="PgfU2g0LXFA_emPEQqJT-3" value="" style="edgeStyle=orthogonalEdgeStyle;rounded=0;orthogonalLoop=1;jettySize=auto;html=1;" edge="1" parent="1" source="PgfU2g0LXFA_emPEQqJT-1" target="PgfU2g0LXFA_emPEQqJT-2">
          <mxGeometry relative="1" as="geometry" />
        </mxCell>
        <mxCell id="PgfU2g0LXFA_emPEQqJT-1" value="系统A" style="rounded=1;whiteSpace=wrap;html=1;fillColor=#0050ef;strokeColor=#001DBC;fontColor=#ffffff;" vertex="1" parent="1">
          <mxGeometry x="110" y="300" width="120" height="60" as="geometry" />
        </mxCell>
        <mxCell id="PgfU2g0LXFA_emPEQqJT-7" value="" style="edgeStyle=orthogonalEdgeStyle;rounded=0;orthogonalLoop=1;jettySize=auto;html=1;" edge="1" parent="1" source="PgfU2g0LXFA_emPEQqJT-2" target="PgfU2g0LXFA_emPEQqJT-6">
          <mxGeometry relative="1" as="geometry" />
        </mxCell>
        <mxCell id="PgfU2g0LXFA_emPEQqJT-2" value="消息引擎系统" style="rounded=1;whiteSpace=wrap;html=1;fillColor=#60a917;fontColor=#ffffff;strokeColor=#2D7600;" vertex="1" parent="1">
          <mxGeometry x="310" y="285" width="170" height="90" as="geometry" />
        </mxCell>
        <mxCell id="PgfU2g0LXFA_emPEQqJT-6" value="系统B" style="rounded=1;whiteSpace=wrap;html=1;fillColor=#1ba1e2;fontColor=#ffffff;strokeColor=#006EAF;" vertex="1" parent="1">
          <mxGeometry x="580" y="300" width="120" height="60" as="geometry" />
        </mxCell>
        <mxCell id="PgfU2g0LXFA_emPEQqJT-9" value="&lt;font style=&quot;font-size: 24px;&quot;&gt;生产者和消费者&lt;/font&gt;" style="text;html=1;align=center;verticalAlign=middle;resizable=0;points=[];autosize=1;strokeColor=none;fillColor=none;" vertex="1" parent="1">
          <mxGeometry x="305" y="190" width="180" height="20" as="geometry" />
        </mxCell>
      </root>
    </mxGraphModel>
  </diagram>
</mxfile>
